<svg width="332" height="37" viewBox="0 0 332 37" fill="none" xmlns="http://www.w3.org/2000/svg">
<path d="M25.35 27.5V36H0.0500002V0.499998H24.9V9H9.8V14H22.7V21.9H9.8V27.5H25.35ZM29.334 26.45V17.95H44.984V26.45H29.334ZM48.5883 17.95C48.5883 15.7833 48.9883 13.6667 49.7883 11.6C50.6216 9.5 51.8216 7.6 53.3883 5.9C54.9549 4.2 56.8549 2.85 59.0883 1.85C61.3549 0.816665 63.9049 0.299998 66.7383 0.299998C70.1383 0.299998 73.1049 1.01667 75.6383 2.45C78.1716 3.85 80.055 5.71667 81.2883 8.05L73.8383 13.35C73.4049 12.1833 72.7716 11.2833 71.9383 10.65C71.1383 10.0167 70.2549 9.58333 69.2883 9.35C68.3549 9.08333 67.4383 8.95 66.5383 8.95C65.1383 8.95 63.9216 9.23333 62.8883 9.8C61.8883 10.3333 61.0549 11.05 60.3883 11.95C59.7549 12.85 59.2716 13.85 58.9383 14.95C58.6383 16.05 58.4883 17.15 58.4883 18.25C58.4883 19.4833 58.6716 20.6667 59.0383 21.8C59.4049 22.9333 59.9383 23.95 60.6383 24.85C61.3383 25.7167 62.1883 26.4 63.1883 26.9C64.2216 27.4 65.3716 27.65 66.6383 27.65C67.5383 27.65 68.4549 27.5167 69.3883 27.25C70.3216 26.95 71.1716 26.4833 71.9383 25.85C72.7049 25.2167 73.2883 24.3667 73.6883 23.3L81.6383 28.05C80.9383 29.7833 79.7716 31.2667 78.1383 32.5C76.5049 33.7333 74.6549 34.6833 72.5883 35.35C70.5216 35.9833 68.4716 36.3 66.4383 36.3C63.8049 36.3 61.3883 35.7833 59.1883 34.75C57.0216 33.6833 55.1383 32.2833 53.5383 30.55C51.9716 28.7833 50.7549 26.8167 49.8883 24.65C49.0216 22.45 48.5883 20.2167 48.5883 17.95ZM100.571 36.3C97.8715 36.3 95.4215 35.8 93.2215 34.8C91.0215 33.7667 89.1215 32.4 87.5215 30.7C85.9548 28.9667 84.7382 27.0333 83.8715 24.9C83.0382 22.7333 82.6215 20.5 82.6215 18.2C82.6215 15.8333 83.0715 13.5833 83.9715 11.45C84.8715 9.31667 86.1215 7.41667 87.7215 5.75C89.3548 4.05 91.2715 2.71667 93.4715 1.75C95.7048 0.783331 98.1382 0.299998 100.771 0.299998C103.471 0.299998 105.921 0.816665 108.121 1.85C110.321 2.85 112.205 4.21666 113.771 5.95C115.338 7.68333 116.538 9.63333 117.371 11.8C118.238 13.9333 118.671 16.1333 118.671 18.4C118.671 20.7333 118.221 22.9667 117.321 25.1C116.455 27.2333 115.205 29.15 113.571 30.85C111.971 32.5167 110.071 33.85 107.871 34.85C105.671 35.8167 103.238 36.3 100.571 36.3ZM92.5215 18.3C92.5215 19.5 92.6882 20.6667 93.0215 21.8C93.3548 22.9 93.8548 23.9 94.5215 24.8C95.1882 25.6667 96.0215 26.3667 97.0215 26.9C98.0548 27.4 99.2715 27.65 100.671 27.65C102.071 27.65 103.288 27.3833 104.321 26.85C105.355 26.3167 106.188 25.6 106.821 24.7C107.488 23.7667 107.971 22.75 108.271 21.65C108.605 20.5167 108.771 19.3667 108.771 18.2C108.771 17 108.605 15.85 108.271 14.75C107.938 13.65 107.438 12.6667 106.771 11.8C106.105 10.9 105.255 10.2 104.221 9.7C103.188 9.2 101.988 8.95 100.621 8.95C99.2215 8.95 98.0048 9.21667 96.9715 9.75C95.9715 10.2833 95.1382 11 94.4715 11.9C93.8048 12.7667 93.3048 13.7667 92.9715 14.9C92.6715 16 92.5215 17.1333 92.5215 18.3ZM149.654 36V17.3L143.704 30.45H138.504L132.554 17.3V36H122.804V0.499998H133.454L141.104 17.2L148.804 0.499998H159.404V36H149.654ZM192.33 36V17.3L186.38 30.45H181.18L175.23 17.3V36H165.48V0.499998H176.13L183.78 17.2L191.48 0.499998H202.08V36H192.33ZM233.455 27.5V36H208.155V0.499998H233.005V9H217.905V14H230.805V21.9H217.905V27.5H233.455ZM237.989 36V0.499998H254.289C256.023 0.499998 257.623 0.849999 259.089 1.55C260.556 2.25 261.823 3.2 262.889 4.4C263.956 5.56667 264.773 6.88333 265.339 8.35C265.939 9.81667 266.239 11.3 266.239 12.8C266.239 14.1667 266.039 15.4833 265.639 16.75C265.239 18.0167 264.656 19.1833 263.889 20.25C263.123 21.2833 262.206 22.1833 261.139 22.95L268.639 36H257.939L251.689 25.1H247.739V36H237.989ZM247.739 16.6H253.889C254.289 16.6 254.673 16.45 255.039 16.15C255.406 15.85 255.706 15.4167 255.939 14.85C256.206 14.2833 256.339 13.6 256.339 12.8C256.339 11.9667 256.189 11.2833 255.889 10.75C255.623 10.1833 255.273 9.75 254.839 9.45C254.439 9.15 254.039 9 253.639 9H247.739V16.6ZM269.34 17.95C269.34 15.7833 269.74 13.6667 270.54 11.6C271.374 9.5 272.574 7.6 274.14 5.9C275.707 4.2 277.607 2.85 279.84 1.85C282.107 0.816665 284.657 0.299998 287.49 0.299998C290.89 0.299998 293.857 1.01667 296.39 2.45C298.924 3.85 300.807 5.71667 302.04 8.05L294.59 13.35C294.157 12.1833 293.524 11.2833 292.69 10.65C291.89 10.0167 291.007 9.58333 290.04 9.35C289.107 9.08333 288.19 8.95 287.29 8.95C285.89 8.95 284.674 9.23333 283.64 9.8C282.64 10.3333 281.807 11.05 281.14 11.95C280.507 12.85 280.024 13.85 279.69 14.95C279.39 16.05 279.24 17.15 279.24 18.25C279.24 19.4833 279.424 20.6667 279.79 21.8C280.157 22.9333 280.69 23.95 281.39 24.85C282.09 25.7167 282.94 26.4 283.94 26.9C284.974 27.4 286.124 27.65 287.39 27.65C288.29 27.65 289.207 27.5167 290.14 27.25C291.074 26.95 291.924 26.4833 292.69 25.85C293.457 25.2167 294.04 24.3667 294.44 23.3L302.39 28.05C301.69 29.7833 300.524 31.2667 298.89 32.5C297.257 33.7333 295.407 34.6833 293.34 35.35C291.274 35.9833 289.224 36.3 287.19 36.3C284.557 36.3 282.14 35.7833 279.94 34.75C277.774 33.6833 275.89 32.2833 274.29 30.55C272.724 28.7833 271.507 26.8167 270.64 24.65C269.774 22.45 269.34 20.2167 269.34 17.95ZM331.161 27.5V36H305.861V0.499998H330.711V9H315.611V14H328.511V21.9H315.611V27.5H331.161Z" fill="#788DAA"/>
</svg>
