<svg width="257" height="37" viewBox="0 0 257 37" fill="none" xmlns="http://www.w3.org/2000/svg">
<path d="M0.0500002 36V0.499998H16.35C18.0833 0.499998 19.6833 0.849999 21.15 1.55C22.6167 2.25 23.8833 3.2 24.95 4.4C26.0167 5.56667 26.8333 6.88333 27.4 8.35C28 9.81667 28.3 11.3 28.3 12.8C28.3 14.1667 28.1 15.4833 27.7 16.75C27.3 18.0167 26.7167 19.1833 25.95 20.25C25.1833 21.2833 24.2667 22.1833 23.2 22.95L30.7 36H20L13.75 25.1H9.8V36H0.0500002ZM9.8 16.6H15.95C16.35 16.6 16.7333 16.45 17.1 16.15C17.4667 15.85 17.7667 15.4167 18 14.85C18.2667 14.2833 18.4 13.6 18.4 12.8C18.4 11.9667 18.25 11.2833 17.95 10.75C17.6833 10.1833 17.3333 9.75 16.9 9.45C16.5 9.15 16.1 9 15.7 9H9.8V16.6ZM59.0902 27.5V36H33.7902V0.499998H58.6402V9H43.5402V14H56.4402V21.9H43.5402V27.5H59.0902ZM85.1242 12.1C85.1242 12.1 84.8409 11.9333 84.2742 11.6C83.7076 11.2667 82.9576 10.9 82.0242 10.5C81.0909 10.0667 80.0742 9.68333 78.9742 9.35C77.8742 9.01666 76.7909 8.85 75.7242 8.85C74.8909 8.85 74.2076 8.98333 73.6742 9.25C73.1409 9.51667 72.8742 9.96667 72.8742 10.6C72.8742 11.2 73.1409 11.6833 73.6742 12.05C74.2076 12.4167 74.9576 12.75 75.9242 13.05C76.9242 13.35 78.1076 13.7167 79.4742 14.15C81.6742 14.8167 83.5742 15.5833 85.1742 16.45C86.7742 17.3167 88.0076 18.4333 88.8742 19.8C89.7409 21.1333 90.1742 22.9167 90.1742 25.15C90.1742 27.2833 89.7909 29.0833 89.0242 30.55C88.2576 31.9833 87.2242 33.1333 85.9242 34C84.6242 34.8667 83.1742 35.5 81.5742 35.9C79.9742 36.2667 78.3409 36.45 76.6742 36.45C74.9742 36.45 73.1909 36.2833 71.3242 35.95C69.4909 35.5833 67.7076 35.1 65.9742 34.5C64.2409 33.8667 62.6576 33.1333 61.2242 32.3L65.4242 23.75C65.4242 23.75 65.7576 23.95 66.4242 24.35C67.0909 24.75 67.9742 25.2 69.0742 25.7C70.1742 26.2 71.3909 26.65 72.7242 27.05C74.0909 27.45 75.4576 27.65 76.8242 27.65C77.8909 27.65 78.6242 27.5167 79.0242 27.25C79.4576 26.95 79.6742 26.5667 79.6742 26.1C79.6742 25.4 79.3076 24.8667 78.5742 24.5C77.8409 24.1 76.8742 23.7333 75.6742 23.4C74.5076 23.0333 73.2076 22.6167 71.7742 22.15C69.7076 21.45 68.0076 20.6667 66.6742 19.8C65.3409 18.9 64.3576 17.85 63.7242 16.65C63.0909 15.4167 62.7742 13.9333 62.7742 12.2C62.7742 9.56667 63.3909 7.36667 64.6242 5.6C65.8576 3.83333 67.4742 2.5 69.4742 1.6C71.5076 0.666666 73.6909 0.199999 76.0242 0.199999C77.7576 0.199999 79.4242 0.416666 81.0242 0.85C82.6576 1.25 84.1742 1.75 85.5742 2.35C87.0076 2.95 88.2576 3.51666 89.3242 4.05L85.1242 12.1ZM119.784 27.5V36H94.4836V0.499998H119.334V9H104.234V14H117.134V21.9H104.234V27.5H119.784ZM132.518 0.499998H143.418L154.718 36H144.818L142.668 29.05H133.218L131.118 36H121.168L132.518 0.499998ZM141.118 22.55L137.968 10.05L134.668 22.55H141.118ZM157.667 36V0.499998H173.967C175.701 0.499998 177.301 0.849999 178.767 1.55C180.234 2.25 181.501 3.2 182.567 4.4C183.634 5.56667 184.451 6.88333 185.017 8.35C185.617 9.81667 185.917 11.3 185.917 12.8C185.917 14.1667 185.717 15.4833 185.317 16.75C184.917 18.0167 184.334 19.1833 183.567 20.25C182.801 21.2833 181.884 22.1833 180.817 22.95L188.317 36H177.617L171.367 25.1H167.417V36H157.667ZM167.417 16.6H173.567C173.967 16.6 174.351 16.45 174.717 16.15C175.084 15.85 175.384 15.4167 175.617 14.85C175.884 14.2833 176.017 13.6 176.017 12.8C176.017 11.9667 175.867 11.2833 175.567 10.75C175.301 10.1833 174.951 9.75 174.517 9.45C174.117 9.15 173.717 9 173.317 9H167.417V16.6ZM189.018 17.95C189.018 15.7833 189.418 13.6667 190.218 11.6C191.051 9.5 192.251 7.6 193.818 5.9C195.385 4.2 197.285 2.85 199.518 1.85C201.785 0.816665 204.335 0.299998 207.168 0.299998C210.568 0.299998 213.535 1.01667 216.068 2.45C218.601 3.85 220.485 5.71667 221.718 8.05L214.268 13.35C213.835 12.1833 213.201 11.2833 212.368 10.65C211.568 10.0167 210.685 9.58333 209.718 9.35C208.785 9.08333 207.868 8.95 206.968 8.95C205.568 8.95 204.351 9.23333 203.318 9.8C202.318 10.3333 201.485 11.05 200.818 11.95C200.185 12.85 199.701 13.85 199.368 14.95C199.068 16.05 198.918 17.15 198.918 18.25C198.918 19.4833 199.101 20.6667 199.468 21.8C199.835 22.9333 200.368 23.95 201.068 24.85C201.768 25.7167 202.618 26.4 203.618 26.9C204.651 27.4 205.801 27.65 207.068 27.65C207.968 27.65 208.885 27.5167 209.818 27.25C210.751 26.95 211.601 26.4833 212.368 25.85C213.135 25.2167 213.718 24.3667 214.118 23.3L222.068 28.05C221.368 29.7833 220.201 31.2667 218.568 32.5C216.935 33.7333 215.085 34.6833 213.018 35.35C210.951 35.9833 208.901 36.3 206.868 36.3C204.235 36.3 201.818 35.7833 199.618 34.75C197.451 33.6833 195.568 32.2833 193.968 30.55C192.401 28.7833 191.185 26.8167 190.318 24.65C189.451 22.45 189.018 20.2167 189.018 17.95ZM256.938 0.499998V36H247.188V22.1H235.288V36H225.538V0.499998H235.288V13.6H247.188V0.499998H256.938Z" fill="#788DAA"/>
</svg>
