<svg width="225" height="37" viewBox="0 0 225 37" fill="none" xmlns="http://www.w3.org/2000/svg">
<path d="M30.7 9H20.5V36H10.75V9H0.5V0.499998H30.7V9ZM34.2512 36V0.499998H50.5512C52.2845 0.499998 53.8845 0.849999 55.3512 1.55C56.8178 2.25 58.0845 3.2 59.1512 4.4C60.2178 5.56667 61.0345 6.88333 61.6012 8.35C62.2012 9.81667 62.5012 11.3 62.5012 12.8C62.5012 14.1667 62.3012 15.4833 61.9012 16.75C61.5012 18.0167 60.9178 19.1833 60.1512 20.25C59.3845 21.2833 58.4678 22.1833 57.4012 22.95L64.9012 36H54.2012L47.9512 25.1H44.0012V36H34.2512ZM44.0012 16.6H50.1512C50.5512 16.6 50.9345 16.45 51.3012 16.15C51.6678 15.85 51.9678 15.4167 52.2012 14.85C52.4678 14.2833 52.6012 13.6 52.6012 12.8C52.6012 11.9667 52.4512 11.2833 52.1512 10.75C51.8845 10.1833 51.5345 9.75 51.1012 9.45C50.7012 9.15 50.3012 9 49.9012 9H44.0012V16.6ZM83.1984 36.3C80.3651 36.3 77.9318 35.8333 75.8984 34.9C73.8651 33.9667 72.1984 32.6833 70.8984 31.05C69.6318 29.4167 68.6984 27.55 68.0984 25.45C67.4984 23.3167 67.1984 21.0833 67.1984 18.75V0.499998H76.9484V18.75C76.9484 19.9167 77.0651 21.0333 77.2984 22.1C77.5318 23.1667 77.8984 24.1167 78.3984 24.95C78.8984 25.7833 79.5318 26.45 80.2984 26.95C81.0984 27.4167 82.0651 27.65 83.1984 27.65C84.3651 27.65 85.3484 27.4167 86.1484 26.95C86.9484 26.45 87.5818 25.7833 88.0484 24.95C88.5484 24.0833 88.9151 23.1167 89.1484 22.05C89.3818 20.9833 89.4984 19.8833 89.4984 18.75V0.499998H99.2484V18.75C99.2484 21.2167 98.9151 23.5167 98.2484 25.65C97.6151 27.7833 96.6484 29.65 95.3484 31.25C94.0484 32.85 92.3818 34.1 90.3484 35C88.3484 35.8667 85.9651 36.3 83.1984 36.3ZM126.357 12.1C126.357 12.1 126.073 11.9333 125.507 11.6C124.94 11.2667 124.19 10.9 123.257 10.5C122.323 10.0667 121.307 9.68333 120.207 9.35C119.107 9.01666 118.023 8.85 116.957 8.85C116.123 8.85 115.44 8.98333 114.907 9.25C114.373 9.51667 114.107 9.96667 114.107 10.6C114.107 11.2 114.373 11.6833 114.907 12.05C115.44 12.4167 116.19 12.75 117.157 13.05C118.157 13.35 119.34 13.7167 120.707 14.15C122.907 14.8167 124.807 15.5833 126.407 16.45C128.007 17.3167 129.24 18.4333 130.107 19.8C130.973 21.1333 131.407 22.9167 131.407 25.15C131.407 27.2833 131.023 29.0833 130.257 30.55C129.49 31.9833 128.457 33.1333 127.157 34C125.857 34.8667 124.407 35.5 122.807 35.9C121.207 36.2667 119.573 36.45 117.907 36.45C116.207 36.45 114.423 36.2833 112.557 35.95C110.723 35.5833 108.94 35.1 107.207 34.5C105.473 33.8667 103.89 33.1333 102.457 32.3L106.657 23.75C106.657 23.75 106.99 23.95 107.657 24.35C108.323 24.75 109.207 25.2 110.307 25.7C111.407 26.2 112.623 26.65 113.957 27.05C115.323 27.45 116.69 27.65 118.057 27.65C119.123 27.65 119.857 27.5167 120.257 27.25C120.69 26.95 120.907 26.5667 120.907 26.1C120.907 25.4 120.54 24.8667 119.807 24.5C119.073 24.1 118.107 23.7333 116.907 23.4C115.74 23.0333 114.44 22.6167 113.007 22.15C110.94 21.45 109.24 20.6667 107.907 19.8C106.573 18.9 105.59 17.85 104.957 16.65C104.323 15.4167 104.007 13.9333 104.007 12.2C104.007 9.56667 104.623 7.36667 105.857 5.6C107.09 3.83333 108.707 2.5 110.707 1.6C112.74 0.666666 114.923 0.199999 117.257 0.199999C118.99 0.199999 120.657 0.416666 122.257 0.85C123.89 1.25 125.407 1.75 126.807 2.35C128.24 2.95 129.49 3.51666 130.557 4.05L126.357 12.1ZM163.366 9H153.166V36H143.416V9H133.166V0.499998H163.366V9ZM171.846 0.499998H182.746L194.046 36H184.146L181.996 29.05H172.546L170.446 36H160.496L171.846 0.499998ZM180.446 22.55L177.296 10.05L173.996 22.55H180.446ZM200.582 0.499998L206.932 15L213.432 0.499998H224.032L211.782 24.25V36H202.082V24.15L190.032 0.499998H200.582Z" fill="#788DAA"/>
</svg>
